<?xml version="1.0" encoding="UTF-8" standalone="no"?>
<!DOCTYPE svg PUBLIC "-//W3C//DTD SVG 1.1//EN"
 "http://www.w3.org/Graphics/SVG/1.1/DTD/svg11.dtd">
<!-- Generated by graphviz version 2.43.0 (0)
 -->
<!-- Title: %3 Pages: 1 -->
<svg width="88pt" height="116pt"
 viewBox="0.00 0.00 88.00 116.00" xmlns="http://www.w3.org/2000/svg" xmlns:xlink="http://www.w3.org/1999/xlink">
<g id="graph0" class="graph" transform="scale(1 1) rotate(0) translate(4 112)">
<title>%3</title>
<polygon fill="white" stroke="transparent" points="-4,4 -4,-112 84,-112 84,4 -4,4"/>
<!-- print -->
<g id="node1" class="node">
<title>print</title>
<path fill="none" stroke="black" d="M58,-104.73C58,-106.53 45.9,-108 31,-108 16.1,-108 4,-106.53 4,-104.73 4,-104.73 4,-75.27 4,-75.27 4,-73.47 16.1,-72 31,-72 45.9,-72 58,-73.47 58,-75.27 58,-75.27 58,-104.73 58,-104.73"/>
<path fill="none" stroke="black" d="M58,-104.73C58,-102.92 45.9,-101.45 31,-101.45 16.1,-101.45 4,-102.92 4,-104.73"/>
<text text-anchor="middle" x="31" y="-86.3" font-family="Times,serif" font-size="14.00">print</text>
</g>
<!-- print&#45;&gt;print -->
<g id="edge1" class="edge">
<title>print&#45;&gt;print</title>
<path fill="none" stroke="black" d="M58.24,-103.49C68.02,-103.78 76,-99.28 76,-90 76,-84.2 72.88,-80.27 68.16,-78.21"/>
<polygon fill="black" stroke="black" points="68.69,-74.75 58.24,-76.51 67.51,-81.65 68.69,-74.75"/>
</g>
<!-- school -->
<g id="node2" class="node">
<title>school</title>
<path fill="none" stroke="black" d="M62,-32.73C62,-34.53 48.11,-36 31,-36 13.89,-36 0,-34.53 0,-32.73 0,-32.73 0,-3.27 0,-3.27 0,-1.47 13.89,0 31,0 48.11,0 62,-1.47 62,-3.27 62,-3.27 62,-32.73 62,-32.73"/>
<path fill="none" stroke="black" d="M62,-32.73C62,-30.92 48.11,-29.45 31,-29.45 13.89,-29.45 0,-30.92 0,-32.73"/>
<text text-anchor="middle" x="31" y="-14.3" font-family="Times,serif" font-size="14.00">school</text>
</g>
<!-- print&#45;&gt;school -->
<g id="edge2" class="edge">
<title>print&#45;&gt;school</title>
<path fill="none" stroke="black" d="M31,-71.7C31,-63.98 31,-54.71 31,-46.11"/>
<polygon fill="black" stroke="black" points="34.5,-46.1 31,-36.1 27.5,-46.1 34.5,-46.1"/>
</g>
<!-- school&#45;&gt;school -->
<g id="edge3" class="edge">
<title>school&#45;&gt;school</title>
<path fill="none" stroke="black" d="M62.1,-31.5C72.09,-31.36 80,-26.86 80,-18 80,-12.46 76.91,-8.63 72.15,-6.5"/>
<polygon fill="black" stroke="black" points="72.59,-3.02 62.1,-4.5 71.23,-9.88 72.59,-3.02"/>
</g>
</g>
</svg>
