<?xml version="1.0" encoding="UTF-8" standalone="no"?>
<!DOCTYPE svg PUBLIC "-//W3C//DTD SVG 1.1//EN"
 "http://www.w3.org/Graphics/SVG/1.1/DTD/svg11.dtd">
<!-- Generated by graphviz version 2.43.0 (0)
 -->
<!-- Title: %3 Pages: 1 -->
<svg width="601pt" height="188pt"
 viewBox="0.00 0.00 601.09 188.00" xmlns="http://www.w3.org/2000/svg" xmlns:xlink="http://www.w3.org/1999/xlink">
<g id="graph0" class="graph" transform="scale(1 1) rotate(0) translate(4 184)">
<title>%3</title>
<polygon fill="white" stroke="transparent" points="-4,4 -4,-184 597.09,-184 597.09,4 -4,4"/>
<!-- print__paper -->
<g id="node1" class="node">
<title>print__paper</title>
<path fill="none" stroke="black" d="M256.1,-32.73C256.1,-34.53 232.12,-36 202.6,-36 173.08,-36 149.1,-34.53 149.1,-32.73 149.1,-32.73 149.1,-3.27 149.1,-3.27 149.1,-1.47 173.08,0 202.6,0 232.12,0 256.1,-1.47 256.1,-3.27 256.1,-3.27 256.1,-32.73 256.1,-32.73"/>
<path fill="none" stroke="black" d="M256.1,-32.73C256.1,-30.92 232.12,-29.45 202.6,-29.45 173.08,-29.45 149.1,-30.92 149.1,-32.73"/>
<text text-anchor="middle" x="202.6" y="-14.3" font-family="Times,serif" font-size="14.00">print.service</text>
</g>
<!-- print__service -->
<g id="node2" class="node">
<title>print__service</title>
<ellipse fill="none" stroke="black" cx="202.6" cy="-90" rx="75.29" ry="18"/>
<text text-anchor="middle" x="202.6" y="-86.3" font-family="Times,serif" font-size="14.00">print__service</text>
</g>
<!-- print__service&#45;&gt;print__paper -->
<g id="edge1" class="edge">
<title>print__service&#45;&gt;print__paper</title>
<path fill="none" stroke="black" d="M202.6,-71.7C202.6,-63.98 202.6,-54.71 202.6,-46.11"/>
<polygon fill="black" stroke="black" points="206.1,-46.1 202.6,-36.1 199.1,-46.1 206.1,-46.1"/>
</g>
<!-- print__per_user -->
<g id="node3" class="node">
<title>print__per_user</title>
<polygon fill="none" stroke="black" points="191.3,-167.56 95.6,-180 -0.1,-167.56 -0.01,-147.44 191.21,-147.44 191.3,-167.56"/>
<text text-anchor="middle" x="95.6" y="-158.3" font-family="Times,serif" font-size="14.00">print.per_user</text>
</g>
<!-- print__per_user&#45;&gt;print__paper -->
<g id="edge2" class="edge">
<title>print__per_user&#45;&gt;print__paper</title>
<path fill="none" stroke="black" d="M96.06,-147.32C97.33,-128.63 101.95,-94.82 118.6,-72 127.94,-59.2 141.39,-48.76 154.81,-40.64"/>
<polygon fill="black" stroke="black" points="156.63,-43.63 163.57,-35.63 153.15,-37.55 156.63,-43.63"/>
</g>
<!-- print__per_user&#45;&gt;print__service -->
<g id="edge3" class="edge">
<title>print__per_user&#45;&gt;print__service</title>
<path fill="none" stroke="black" d="M116.49,-147.34C131.51,-137.51 152.07,-124.06 169.34,-112.76"/>
<polygon fill="black" stroke="black" points="171.57,-115.49 178.02,-107.08 167.73,-109.63 171.57,-115.49"/>
</g>
<!-- print__per_class -->
<g id="node4" class="node">
<title>print__per_class</title>
<polygon fill="none" stroke="black" points="405.62,-167.56 307.6,-180 209.58,-167.56 209.67,-147.44 405.53,-147.44 405.62,-167.56"/>
<text text-anchor="middle" x="307.6" y="-158.3" font-family="Times,serif" font-size="14.00">print.per_class</text>
</g>
<!-- print__per_class&#45;&gt;print__paper -->
<g id="edge4" class="edge">
<title>print__per_class&#45;&gt;print__paper</title>
<path fill="none" stroke="black" d="M307.5,-147.34C306.71,-128.66 302.92,-94.87 286.6,-72 277.4,-59.1 263.98,-48.64 250.56,-40.52"/>
<polygon fill="black" stroke="black" points="252.21,-37.43 241.79,-35.52 248.74,-43.51 252.21,-37.43"/>
</g>
<!-- print__per_class&#45;&gt;print__service -->
<g id="edge5" class="edge">
<title>print__per_class&#45;&gt;print__service</title>
<path fill="none" stroke="black" d="M287.11,-147.34C272.37,-137.51 252.19,-124.06 235.24,-112.76"/>
<polygon fill="black" stroke="black" points="236.99,-109.72 226.72,-107.08 233.1,-115.54 236.99,-109.72"/>
</g>
<!-- school__class -->
<g id="node5" class="node">
<title>school__class</title>
<path fill="none" stroke="black" d="M512.1,-104.73C512.1,-106.53 484.98,-108 451.6,-108 418.22,-108 391.1,-106.53 391.1,-104.73 391.1,-104.73 391.1,-75.27 391.1,-75.27 391.1,-73.47 418.22,-72 451.6,-72 484.98,-72 512.1,-73.47 512.1,-75.27 512.1,-75.27 512.1,-104.73 512.1,-104.73"/>
<path fill="none" stroke="black" d="M512.1,-104.73C512.1,-102.92 484.98,-101.45 451.6,-101.45 418.22,-101.45 391.1,-102.92 391.1,-104.73"/>
<text text-anchor="middle" x="451.6" y="-86.3" font-family="Times,serif" font-size="14.00">school.student</text>
</g>
<!-- print__per_class&#45;&gt;school__class -->
<g id="edge6" class="edge">
<title>print__per_class&#45;&gt;school__class</title>
<path fill="none" stroke="black" d="M335.71,-147.34C356.16,-137.4 384.24,-123.74 407.65,-112.37"/>
<polygon fill="black" stroke="black" points="409.23,-115.49 416.69,-107.97 406.17,-109.2 409.23,-115.49"/>
</g>
<!-- school__student -->
<g id="node6" class="node">
<title>school__student</title>
<ellipse fill="none" stroke="black" cx="508.6" cy="-162" rx="84.49" ry="18"/>
<text text-anchor="middle" x="508.6" y="-158.3" font-family="Times,serif" font-size="14.00">school__student</text>
</g>
<!-- school__student&#45;&gt;school__class -->
<g id="edge7" class="edge">
<title>school__student&#45;&gt;school__class</title>
<path fill="none" stroke="black" d="M494.8,-144.05C487.97,-135.67 479.59,-125.38 472.04,-116.1"/>
<polygon fill="black" stroke="black" points="474.7,-113.82 465.67,-108.28 469.27,-118.24 474.7,-113.82"/>
</g>
</g>
</svg>
