<?xml version="1.0" encoding="UTF-8" standalone="no"?>
<!DOCTYPE svg PUBLIC "-//W3C//DTD SVG 1.1//EN"
 "http://www.w3.org/Graphics/SVG/1.1/DTD/svg11.dtd">
<!-- Generated by graphviz version 2.50.0 (20211204.2007)
 -->
<!-- Pages: 1 -->
<svg width="454pt" height="188pt"
 viewBox="0.00 0.00 454.32 188.00" xmlns="http://www.w3.org/2000/svg" xmlns:xlink="http://www.w3.org/1999/xlink">
<g id="graph0" class="graph" transform="scale(1 1) rotate(0) translate(4 184)">
<polygon fill="white" stroke="transparent" points="-4,4 -4,-184 450.32,-184 450.32,4 -4,4"/>
<!-- print__paper -->
<g id="node1" class="node">
<title>print__paper</title>
<path fill="none" stroke="black" d="M209.82,-32.73C209.82,-34.53 192.56,-36 171.32,-36 150.08,-36 132.82,-34.53 132.82,-32.73 132.82,-32.73 132.82,-3.27 132.82,-3.27 132.82,-1.47 150.08,0 171.32,0 192.56,0 209.82,-1.47 209.82,-3.27 209.82,-3.27 209.82,-32.73 209.82,-32.73"/>
<path fill="none" stroke="black" d="M209.82,-32.73C209.82,-30.92 192.56,-29.45 171.32,-29.45 150.08,-29.45 132.82,-30.92 132.82,-32.73"/>
<text text-anchor="middle" x="171.32" y="-14.3" font-family="Times New Roman,serif" font-size="14.00">print.paper</text>
</g>
<!-- print__service -->
<g id="node2" class="node">
<title>print__service</title>
<path fill="none" stroke="black" d="M213.82,-104.73C213.82,-106.53 194.77,-108 171.32,-108 147.87,-108 128.82,-106.53 128.82,-104.73 128.82,-104.73 128.82,-75.27 128.82,-75.27 128.82,-73.47 147.87,-72 171.32,-72 194.77,-72 213.82,-73.47 213.82,-75.27 213.82,-75.27 213.82,-104.73 213.82,-104.73"/>
<path fill="none" stroke="black" d="M213.82,-104.73C213.82,-102.92 194.77,-101.45 171.32,-101.45 147.87,-101.45 128.82,-102.92 128.82,-104.73"/>
<text text-anchor="middle" x="171.32" y="-86.3" font-family="Times New Roman,serif" font-size="14.00">print.service</text>
</g>
<!-- print__service&#45;&gt;print__paper -->
<g id="edge1" class="edge">
<title>print__service&#45;&gt;print__paper</title>
<path fill="none" stroke="black" d="M171.32,-71.7C171.32,-63.98 171.32,-54.71 171.32,-46.11"/>
<polygon fill="black" stroke="black" points="174.82,-46.1 171.32,-36.1 167.82,-46.1 174.82,-46.1"/>
</g>
<!-- print__per_user -->
<g id="node3" class="node">
<title>print__per_user</title>
<polygon fill="none" stroke="black" points="152.46,-167.56 76.32,-180 0.18,-167.56 0.25,-147.44 152.39,-147.44 152.46,-167.56"/>
<text text-anchor="middle" x="76.32" y="-158.3" font-family="Times New Roman,serif" font-size="14.00">print.per_user</text>
</g>
<!-- print__per_user&#45;&gt;print__paper -->
<g id="edge2" class="edge">
<title>print__per_user&#45;&gt;print__paper</title>
<path fill="none" stroke="black" d="M81.32,-147.29C88.29,-129.13 102.04,-96.56 119.32,-72 126.49,-61.81 135.66,-51.75 144.3,-43.19"/>
<polygon fill="black" stroke="black" points="146.91,-45.53 151.69,-36.08 142.06,-40.49 146.91,-45.53"/>
</g>
<!-- print__per_user&#45;&gt;print__service -->
<g id="edge3" class="edge">
<title>print__per_user&#45;&gt;print__service</title>
<path fill="none" stroke="black" d="M95.09,-147.17C107.84,-137.78 125.01,-125.13 139.82,-114.21"/>
<polygon fill="black" stroke="black" points="142.25,-116.77 148.22,-108.02 138.1,-111.13 142.25,-116.77"/>
</g>
<!-- print__per_class -->
<g id="node4" class="node">
<title>print__per_class</title>
<polygon fill="none" stroke="black" points="329.89,-167.56 250.32,-180 170.75,-167.56 170.83,-147.44 329.81,-147.44 329.89,-167.56"/>
<text text-anchor="middle" x="250.32" y="-158.3" font-family="Times New Roman,serif" font-size="14.00">print.per_class</text>
</g>
<!-- print__per_class&#45;&gt;print__paper -->
<g id="edge4" class="edge">
<title>print__per_class&#45;&gt;print__paper</title>
<path fill="none" stroke="black" d="M248.25,-147.21C245.06,-128.97 237.73,-96.31 223.32,-72 217.07,-61.45 208.28,-51.42 199.71,-42.99"/>
<polygon fill="black" stroke="black" points="201.97,-40.32 192.3,-36.01 197.18,-45.41 201.97,-40.32"/>
</g>
<!-- print__per_class&#45;&gt;print__service -->
<g id="edge5" class="edge">
<title>print__per_class&#45;&gt;print__service</title>
<path fill="none" stroke="black" d="M234.71,-147.17C224.31,-137.95 210.37,-125.6 198.21,-114.82"/>
<polygon fill="black" stroke="black" points="200.33,-112.03 190.53,-108.02 195.69,-117.27 200.33,-112.03"/>
</g>
<!-- school__class -->
<g id="node5" class="node">
<title>school__class</title>
<path fill="none" stroke="black" d="M400.32,-104.73C400.32,-106.53 381.05,-108 357.32,-108 333.59,-108 314.32,-106.53 314.32,-104.73 314.32,-104.73 314.32,-75.27 314.32,-75.27 314.32,-73.47 333.59,-72 357.32,-72 381.05,-72 400.32,-73.47 400.32,-75.27 400.32,-75.27 400.32,-104.73 400.32,-104.73"/>
<path fill="none" stroke="black" d="M400.32,-104.73C400.32,-102.92 381.05,-101.45 357.32,-101.45 333.59,-101.45 314.32,-102.92 314.32,-104.73"/>
<text text-anchor="middle" x="357.32" y="-86.3" font-family="Times New Roman,serif" font-size="14.00">school.class</text>
</g>
<!-- print__per_class&#45;&gt;school__class -->
<g id="edge6" class="edge">
<title>print__per_class&#45;&gt;school__class</title>
<path fill="none" stroke="black" d="M271.21,-147.34C285.81,-137.78 305.66,-124.8 322.62,-113.7"/>
<polygon fill="black" stroke="black" points="324.73,-116.5 331.18,-108.1 320.9,-110.65 324.73,-116.5"/>
</g>
<!-- school__student -->
<g id="node6" class="node">
<title>school__student</title>
<path fill="none" stroke="black" d="M446.32,-176.73C446.32,-178.53 424.36,-180 397.32,-180 370.28,-180 348.32,-178.53 348.32,-176.73 348.32,-176.73 348.32,-147.27 348.32,-147.27 348.32,-145.47 370.28,-144 397.32,-144 424.36,-144 446.32,-145.47 446.32,-147.27 446.32,-147.27 446.32,-176.73 446.32,-176.73"/>
<path fill="none" stroke="black" d="M446.32,-176.73C446.32,-174.92 424.36,-173.45 397.32,-173.45 370.28,-173.45 348.32,-174.92 348.32,-176.73"/>
<text text-anchor="middle" x="397.32" y="-158.3" font-family="Times New Roman,serif" font-size="14.00">school.student</text>
</g>
<!-- school__student&#45;&gt;school__class -->
<g id="edge7" class="edge">
<title>school__student&#45;&gt;school__class</title>
<path fill="none" stroke="black" d="M387.43,-143.7C382.83,-135.64 377.26,-125.89 372.17,-116.98"/>
<polygon fill="black" stroke="black" points="375.09,-115.05 367.09,-108.1 369.02,-118.52 375.09,-115.05"/>
</g>
</g>
</svg>
