<?xml version="1.0" encoding="UTF-8" standalone="no"?>
<!DOCTYPE svg PUBLIC "-//W3C//DTD SVG 1.1//EN"
 "http://www.w3.org/Graphics/SVG/1.1/DTD/svg11.dtd">
<!-- Generated by graphviz version 2.43.0 (0)
 -->
<!-- Title: %3 Pages: 1 -->
<svg width="553pt" height="188pt"
 viewBox="0.00 0.00 553.10 188.00" xmlns="http://www.w3.org/2000/svg" xmlns:xlink="http://www.w3.org/1999/xlink">
<g id="graph0" class="graph" transform="scale(1 1) rotate(0) translate(4 184)">
<title>%3</title>
<polygon fill="white" stroke="transparent" points="-4,4 -4,-184 549.1,-184 549.1,4 -4,4"/>
<!-- print__paper -->
<g id="node1" class="node">
<title>print__paper</title>
<path fill="none" stroke="black" d="M262.6,-32.73C262.6,-34.53 240.64,-36 213.6,-36 186.56,-36 164.6,-34.53 164.6,-32.73 164.6,-32.73 164.6,-3.27 164.6,-3.27 164.6,-1.47 186.56,0 213.6,0 240.64,0 262.6,-1.47 262.6,-3.27 262.6,-3.27 262.6,-32.73 262.6,-32.73"/>
<path fill="none" stroke="black" d="M262.6,-32.73C262.6,-30.92 240.64,-29.45 213.6,-29.45 186.56,-29.45 164.6,-30.92 164.6,-32.73"/>
<text text-anchor="middle" x="213.6" y="-14.3" font-family="Times,serif" font-size="14.00">print.paper</text>
</g>
<!-- print__service -->
<g id="node2" class="node">
<title>print__service</title>
<path fill="none" stroke="black" d="M267.1,-104.73C267.1,-106.53 243.12,-108 213.6,-108 184.08,-108 160.1,-106.53 160.1,-104.73 160.1,-104.73 160.1,-75.27 160.1,-75.27 160.1,-73.47 184.08,-72 213.6,-72 243.12,-72 267.1,-73.47 267.1,-75.27 267.1,-75.27 267.1,-104.73 267.1,-104.73"/>
<path fill="none" stroke="black" d="M267.1,-104.73C267.1,-102.92 243.12,-101.45 213.6,-101.45 184.08,-101.45 160.1,-102.92 160.1,-104.73"/>
<text text-anchor="middle" x="213.6" y="-86.3" font-family="Times,serif" font-size="14.00">print.service</text>
</g>
<!-- print__service&#45;&gt;print__paper -->
<g id="edge1" class="edge">
<title>print__service&#45;&gt;print__paper</title>
<path fill="none" stroke="black" d="M213.6,-71.7C213.6,-63.98 213.6,-54.71 213.6,-46.11"/>
<polygon fill="black" stroke="black" points="217.1,-46.1 213.6,-36.1 210.1,-46.1 217.1,-46.1"/>
</g>
<!-- print__per_user -->
<g id="node3" class="node">
<title>print__per_user</title>
<polygon fill="none" stroke="black" points="191.3,-167.56 95.6,-180 -0.1,-167.56 -0.01,-147.44 191.21,-147.44 191.3,-167.56"/>
<text text-anchor="middle" x="95.6" y="-158.3" font-family="Times,serif" font-size="14.00">print.per_user</text>
</g>
<!-- print__per_user&#45;&gt;print__paper -->
<g id="edge2" class="edge">
<title>print__per_user&#45;&gt;print__paper</title>
<path fill="none" stroke="black" d="M102.6,-147.17C112.22,-128.89 130.72,-96.17 151.6,-72 160.75,-61.41 172.07,-51.1 182.53,-42.43"/>
<polygon fill="black" stroke="black" points="184.73,-45.15 190.31,-36.14 180.33,-39.71 184.73,-45.15"/>
</g>
<!-- print__per_user&#45;&gt;print__service -->
<g id="edge3" class="edge">
<title>print__per_user&#45;&gt;print__service</title>
<path fill="none" stroke="black" d="M118.63,-147.34C134.96,-137.65 157.23,-124.44 176.1,-113.24"/>
<polygon fill="black" stroke="black" points="177.96,-116.21 184.78,-108.1 174.39,-110.19 177.96,-116.21"/>
</g>
<!-- print__per_class -->
<g id="node4" class="node">
<title>print__per_class</title>
<polygon fill="none" stroke="black" points="405.62,-167.56 307.6,-180 209.58,-167.56 209.67,-147.44 405.53,-147.44 405.62,-167.56"/>
<text text-anchor="middle" x="307.6" y="-158.3" font-family="Times,serif" font-size="14.00">print.per_class</text>
</g>
<!-- print__per_class&#45;&gt;print__paper -->
<g id="edge4" class="edge">
<title>print__per_class&#45;&gt;print__paper</title>
<path fill="none" stroke="black" d="M305.2,-147.31C301.46,-128.89 292.94,-95.71 276.6,-72 268.92,-60.86 258.31,-50.7 247.97,-42.34"/>
<polygon fill="black" stroke="black" points="249.86,-39.37 239.81,-36.02 245.58,-44.91 249.86,-39.37"/>
</g>
<!-- print__per_class&#45;&gt;print__service -->
<g id="edge5" class="edge">
<title>print__per_class&#45;&gt;print__service</title>
<path fill="none" stroke="black" d="M289.03,-147.17C276.42,-137.78 259.43,-125.13 244.77,-114.21"/>
<polygon fill="black" stroke="black" points="246.57,-111.18 236.46,-108.02 242.39,-116.8 246.57,-111.18"/>
</g>
<!-- school__class -->
<g id="node5" class="node">
<title>school__class</title>
<path fill="none" stroke="black" d="M483.1,-104.73C483.1,-106.53 460.47,-108 432.6,-108 404.74,-108 382.1,-106.53 382.1,-104.73 382.1,-104.73 382.1,-75.27 382.1,-75.27 382.1,-73.47 404.74,-72 432.6,-72 460.47,-72 483.1,-73.47 483.1,-75.27 483.1,-75.27 483.1,-104.73 483.1,-104.73"/>
<path fill="none" stroke="black" d="M483.1,-104.73C483.1,-102.92 460.47,-101.45 432.6,-101.45 404.74,-101.45 382.1,-102.92 382.1,-104.73"/>
<text text-anchor="middle" x="432.6" y="-86.3" font-family="Times,serif" font-size="14.00">school.class</text>
</g>
<!-- print__per_class&#45;&gt;school__class -->
<g id="edge6" class="edge">
<title>print__per_class&#45;&gt;school__class</title>
<path fill="none" stroke="black" d="M332,-147.34C349.37,-137.61 373.1,-124.32 393.15,-113.09"/>
<polygon fill="black" stroke="black" points="395.05,-116.04 402.07,-108.1 391.63,-109.93 395.05,-116.04"/>
</g>
<!-- school__student -->
<g id="node6" class="node">
<title>school__student</title>
<path fill="none" stroke="black" d="M545.1,-176.73C545.1,-178.53 517.98,-180 484.6,-180 451.22,-180 424.1,-178.53 424.1,-176.73 424.1,-176.73 424.1,-147.27 424.1,-147.27 424.1,-145.47 451.22,-144 484.6,-144 517.98,-144 545.1,-145.47 545.1,-147.27 545.1,-147.27 545.1,-176.73 545.1,-176.73"/>
<path fill="none" stroke="black" d="M545.1,-176.73C545.1,-174.92 517.98,-173.45 484.6,-173.45 451.22,-173.45 424.1,-174.92 424.1,-176.73"/>
<text text-anchor="middle" x="484.6" y="-158.3" font-family="Times,serif" font-size="14.00">school.student</text>
</g>
<!-- school__student&#45;&gt;school__class -->
<g id="edge7" class="edge">
<title>school__student&#45;&gt;school__class</title>
<path fill="none" stroke="black" d="M471.75,-143.7C465.58,-135.39 458.06,-125.28 451.28,-116.14"/>
<polygon fill="black" stroke="black" points="454.08,-114.04 445.31,-108.1 448.46,-118.22 454.08,-114.04"/>
</g>
</g>
</svg>
